<svg width="151" height="35" viewBox="0 0 151 35" fill="none" xmlns="http://www.w3.org/2000/svg">
<g clip-path="url(#clip0_240_3360)">
<path fill-rule="evenodd" clip-rule="evenodd" d="M13.2841 24.3C12.1539 24.3 11.07 23.8522 10.2709 23.0552C9.47169 22.2582 9.02273 21.1772 9.02273 20.05V0.5H0.5V20.05C0.5 27.0914 6.22386 32.8 13.2841 32.8H22.6591V24.3H13.2841ZM38.8523 9C37.845 9 36.8475 9.19787 35.9169 9.58232C34.9863 9.96677 34.1407 10.5303 33.4284 11.2406C32.7162 11.951 32.1512 12.7943 31.7657 13.7225C31.3802 14.6506 31.1818 15.6454 31.1818 16.65C31.1818 17.6546 31.3802 18.6494 31.7657 19.5775C32.1512 20.5057 32.7162 21.349 33.4284 22.0594C34.1407 22.7697 34.9863 23.3332 35.9169 23.7177C36.8475 24.1021 37.845 24.3 38.8523 24.3C40.8866 24.3 42.8376 23.494 44.2761 22.0594C45.7146 20.6247 46.5227 18.6789 46.5227 16.65C46.5227 14.6211 45.7146 12.6753 44.2761 11.2406C42.8376 9.80598 40.8866 9 38.8523 9ZM22.6591 16.65C22.6591 7.73095 29.9094 0.5 38.8523 0.5C47.7952 0.5 55.0455 7.73095 55.0455 16.65C55.0455 25.569 47.7952 32.8 38.8523 32.8C29.9094 32.8 22.6591 25.569 22.6591 16.65ZM130.898 9C128.863 9 126.912 9.80598 125.474 11.2406C124.035 12.6753 123.227 14.6211 123.227 16.65C123.227 18.6789 124.035 20.6247 125.474 22.0594C126.912 23.494 128.863 24.3 130.898 24.3C132.932 24.3 134.883 23.494 136.322 22.0594C137.76 20.6247 138.568 18.6789 138.568 16.65C138.568 14.6211 137.76 12.6753 136.322 11.2406C134.883 9.80598 132.932 9 130.898 9ZM114.705 16.65C114.705 7.73095 121.955 0.5 130.898 0.5C139.841 0.5 147.091 7.73095 147.091 16.65C147.091 25.569 139.841 32.8 130.898 32.8C121.955 32.8 114.705 25.569 114.705 16.65ZM72.9432 0.5C64.0003 0.5 56.75 7.73095 56.75 16.65C56.75 25.569 64.0003 32.8 72.9432 32.8H96.8068C98.4849 32.8 100.103 32.545 101.626 32.0724L106.182 34.5L111.098 25.3166C112.346 22.9788 113 20.3707 113 17.7218V16.65C113 7.73095 105.75 0.5 96.8068 0.5H72.9432ZM104.477 16.65C104.477 14.6211 103.669 12.6753 102.231 11.2406C100.792 9.80598 98.8411 9 96.8068 9H72.9432C71.9359 9 70.9384 9.19787 70.0078 9.58232C69.0772 9.96677 68.2316 10.5303 67.5194 11.2406C66.8071 11.951 66.2421 12.7943 65.8566 13.7225C65.4711 14.6506 65.2727 15.6454 65.2727 16.65C65.2727 17.6546 65.4711 18.6494 65.8566 19.5775C66.2421 20.5057 66.8071 21.349 67.5194 22.0594C68.2316 22.7697 69.0772 23.3332 70.0078 23.7177C70.9384 24.1021 71.9359 24.3 72.9432 24.3H96.8068C98.8309 24.3001 100.773 23.5023 102.21 22.0804C103.646 20.6586 104.462 18.7281 104.477 16.7095V16.65Z" fill="#B91C1C"/>
<path d="M152.352 2.625C152.352 3.18859 152.128 3.72909 151.728 4.1276C151.329 4.52612 150.787 4.75 150.222 4.75C149.657 4.75 149.115 4.52612 148.715 4.1276C148.315 3.72909 148.091 3.18859 148.091 2.625C148.091 2.06141 148.315 1.52091 148.715 1.1224C149.115 0.723883 149.657 0.5 150.222 0.5C150.787 0.5 151.329 0.723883 151.728 1.1224C152.128 1.52091 152.352 2.06141 152.352 2.625Z" fill="#B91C1C"/>
</g>
<defs>
<clipPath id="clip0_240_3360">
<rect width="150" height="34" fill="white" transform="translate(0.5 0.5)"/>
</clipPath>
</defs>
</svg>
